<svg xmlns="http://www.w3.org/2000/svg" viewBox="0 0 1000 600" width="1000" height="600" font-family="system-ui, sans-serif">
<defs>
<style>
.park-fill{fill:#cdeccd;fill-opacity:.75;stroke:#a9d6a9;stroke-width:1}
.lake-fill{fill:#aed2f2;fill-opacity:.7;stroke:#7fb4e6;stroke-width:1.2}
.river-bank{stroke:#b7d6f2;stroke-width:20;stroke-opacity:.5;stroke-linejoin:round;stroke-linecap:round}
.river-core{stroke:#86b9e8;stroke-width:11;stroke-opacity:.9;stroke-linejoin:round;stroke-linecap:round}
.contour-line{stroke:#d8c4a3;stroke-width:.8;stroke-opacity:.55;stroke-dasharray:2 3}
.rail-casing{stroke:#9aa0ab;stroke-width:4.5;stroke-linejoin:round;stroke-linecap:round}
.rail-core{stroke:#5b616c;stroke-width:2.2;stroke-linejoin:round;stroke-linecap:round}
.rail-ties{stroke:#fff;stroke-width:2.4;stroke-dasharray:1.5 7;stroke-linecap:round}
.road-casing,.road-core{stroke-linejoin:round;stroke-linecap:round}
.road-highway.road-casing{stroke:#f0b454;stroke-width:8.5}
.road-highway.road-core{stroke:#fff;stroke-width:4.2}
.road-arterial.road-casing{stroke:#c9d2de;stroke-width:5}
.road-arterial.road-core{stroke:#fbfcfe;stroke-width:2.8}
.road-minor.road-casing{stroke:#dde3ec;stroke-width:3}
.road-minor.road-core{stroke:#fff;stroke-width:1.6}
.legend-txt{font-size:10px;fill:#5a6573}
.legend-river{stroke:#86b9e8;stroke-width:4;stroke-linecap:round}
.legend-rail{stroke:#5b616c;stroke-width:3}
.legend-road{stroke:#f0b454;stroke-width:4}
.legend-park{fill:#cdeccd;stroke:#a9d6a9;stroke-width:1}
</style>
</defs>
<rect x="52" y="24" width="924" height="536" fill="#f4f8ff" stroke="#cdd7e6"/>
<g pointer-events="none">
  <polygon points="356.1,409.9 347.0,437.6 298.3,456.3 236.8,448.6 183.4,450.2 147.3,432.4 146.6,409.9 122.5,381.2 173.7,362.4 236.8,358.2 287.9,371.4 342.6,383.4" class="park-fill"/><polygon points="708.4,452.8 674.0,470.4 638.7,481.5 592.5,492.1 546.8,480.7 513.6,463.9 527.9,443.4 545.5,424.3 593.3,415.7 643.9,419.5 685.7,432.1" class="park-fill"/>
  <polygon points="869.0,120.5 873.4,140.9 820.4,145.2 781.2,147.4 736.9,144.7 707.2,130.0 703.5,110.5 740.4,97.8 780.6,92.0 822.5,94.0 875.4,99.6" class="lake-fill"/>
  <polyline points="125.9,506.4 184.9,481.9 243.2,456.5 300.0,430.4 354.7,403.6 406.9,376.3 456.2,348.4 502.5,320.3 545.9,292.0 586.6,263.7 625.1,235.6 662.0,207.7 697.8,180.4 733.4,153.6 769.5,127.5 806.9,102.1 846.2,77.6" fill="none" class="river-bank"/>
  <polyline points="125.9,506.4 184.9,481.9 243.2,456.5 300.0,430.4 354.7,403.6 406.9,376.3 456.2,348.4 502.5,320.3 545.9,292.0 586.6,263.7 625.1,235.6 662.0,207.7 697.8,180.4 733.4,153.6 769.5,127.5 806.9,102.1 846.2,77.6" fill="none" class="river-core"/>
  <polyline points="578.7,99.0 577.1,103.2 572.5,107.1 565.1,110.4 555.6,113.0 544.4,114.6 532.5,115.1 520.5,114.6 509.4,113.0 499.8,110.4 492.5,107.1 487.9,103.2 486.3,99.0 487.9,94.9 492.5,91.0 499.8,87.7 509.4,85.1 520.5,83.5 532.5,83.0 544.4,83.5 555.6,85.1 565.1,87.7 572.5,91.0 577.1,94.9 578.7,99.0" fill="none" class="contour-line"/><polyline points="624.9,99.0 621.7,107.4 612.5,115.1 597.8,121.8 578.7,126.9 556.4,130.1 532.5,131.2 508.6,130.1 486.3,126.9 467.1,121.8 452.5,115.1 443.2,107.4 440.1,99.0 443.2,90.7 452.5,83.0 467.1,76.3 486.3,71.2 508.6,68.0 532.5,66.9 556.4,68.0 578.7,71.2 597.8,76.3 612.5,83.0 621.7,90.7 624.9,99.0" fill="none" class="contour-line"/><polyline points="671.1,99.0 666.4,111.5 652.5,123.2 630.5,133.2 601.8,140.8 568.4,145.6 532.5,147.3 496.6,145.6 463.2,140.8 434.5,133.2 412.4,123.2 398.6,111.5 393.9,99.0 398.6,86.6 412.4,74.9 434.5,64.9 463.2,57.3 496.6,52.4 532.5,50.8 568.4,52.4 601.8,57.3 630.5,64.9 652.5,74.9 666.4,86.6 671.1,99.0" fill="none" class="contour-line"/><polyline points="717.3,99.0 711.0,115.7 692.5,131.2 663.2,144.5 624.9,154.7 580.3,161.2 532.5,163.4 484.7,161.2 440.1,154.7 401.8,144.5 372.4,131.2 354.0,115.7 347.7,99.0 354.0,82.4 372.4,66.9 401.8,53.6 440.1,43.3 484.7,36.9 532.5,34.7 580.3,36.9 624.9,43.3 663.2,53.6 692.5,66.9 711.0,82.4 717.3,99.0" fill="none" class="contour-line"/>
  <polyline points="162.9,158.0 244.1,189.9 324.8,219.3 404.4,246.6 482.4,272.4 558.4,297.4 632.2,322.3 703.7,348.1 772.9,375.4 840.0,404.8 905.3,436.7" fill="none" class="rail-casing"/>
  <polyline points="162.9,158.0 244.1,189.9 324.8,219.3 404.4,246.6 482.4,272.4 558.4,297.4 632.2,322.3 703.7,348.1 772.9,375.4 840.0,404.8 905.3,436.7" fill="none" class="rail-core"/>
  <polyline points="162.9,158.0 244.1,189.9 324.8,219.3 404.4,246.6 482.4,272.4 558.4,297.4 632.2,322.3 703.7,348.1 772.9,375.4 840.0,404.8 905.3,436.7" fill="none" class="rail-ties"/>
  <polyline points="52.0,86.7 206.0,76.5 360.0,90.5 514.0,81.7 668.0,77.8 822.0,79.5 976.0,86.6" fill="none" class="road-casing road-arterial"/>
          <polyline points="52.0,86.7 206.0,76.5 360.0,90.5 514.0,81.7 668.0,77.8 822.0,79.5 976.0,86.6" fill="none" class="road-core road-arterial"/><polyline points="52.0,193.3 206.0,189.1 360.0,187.5 514.0,190.9 668.0,192.2 822.0,184.9 976.0,190.9" fill="none" class="road-casing road-minor"/>
          <polyline points="52.0,193.3 206.0,189.1 360.0,187.5 514.0,190.9 668.0,192.2 822.0,184.9 976.0,190.9" fill="none" class="road-core road-minor"/><polyline points="52.0,314.2 206.0,314.1 360.0,310.7 514.0,312.9 668.0,302.4 822.0,313.2 976.0,309.3" fill="none" class="road-casing road-arterial"/>
          <polyline points="52.0,314.2 206.0,314.1 360.0,310.7 514.0,312.9 668.0,302.4 822.0,313.2 976.0,309.3" fill="none" class="road-core road-arterial"/><polyline points="52.0,389.2 206.0,395.3 360.0,391.7 514.0,387.2 668.0,402.4 822.0,391.1 976.0,388.8" fill="none" class="road-casing road-minor"/>
          <polyline points="52.0,389.2 206.0,395.3 360.0,391.7 514.0,387.2 668.0,402.4 822.0,391.1 976.0,388.8" fill="none" class="road-core road-minor"/><polyline points="52.0,526.3 206.0,515.5 360.0,518.7 514.0,526.0 668.0,527.0 822.0,523.0 976.0,521.4" fill="none" class="road-casing road-arterial"/>
          <polyline points="52.0,526.3 206.0,515.5 360.0,518.7 514.0,526.0 668.0,527.0 822.0,523.0 976.0,521.4" fill="none" class="road-core road-arterial"/><polyline points="153.1,24.0 147.7,131.2 149.1,238.4 138.8,345.6 144.1,452.8 146.9,560.0" fill="none" class="road-casing road-minor"/>
          <polyline points="153.1,24.0 147.7,131.2 149.1,238.4 138.8,345.6 144.1,452.8 146.9,560.0" fill="none" class="road-core road-minor"/><polyline points="328.7,24.0 332.4,131.2 317.1,238.4 313.9,345.6 324.0,452.8 332.4,560.0" fill="none" class="road-casing road-arterial"/>
          <polyline points="328.7,24.0 332.4,131.2 317.1,238.4 313.9,345.6 324.0,452.8 332.4,560.0" fill="none" class="road-core road-arterial"/><polyline points="531.1,24.0 534.2,131.2 515.0,238.4 536.5,345.6 531.4,452.8 522.1,560.0" fill="none" class="road-casing road-minor"/>
          <polyline points="531.1,24.0 534.2,131.2 515.0,238.4 536.5,345.6 531.4,452.8 522.1,560.0" fill="none" class="road-core road-minor"/><polyline points="690.1,24.0 698.3,131.2 701.1,238.4 698.7,345.6 705.6,452.8 681.3,560.0" fill="none" class="road-casing road-arterial"/>
          <polyline points="690.1,24.0 698.3,131.2 701.1,238.4 698.7,345.6 705.6,452.8 681.3,560.0" fill="none" class="road-core road-arterial"/><polyline points="907.1,24.0 913.7,131.2 923.4,238.4 905.7,345.6 899.7,452.8 900.2,560.0" fill="none" class="road-casing road-minor"/>
          <polyline points="907.1,24.0 913.7,131.2 923.4,238.4 905.7,345.6 899.7,452.8 900.2,560.0" fill="none" class="road-core road-minor"/><polyline points="54.0,26.0 162.5,52.0 270.7,81.2 374.5,112.5 472.0,147.0 562.0,185.2 643.4,227.7 716.0,274.5 780.0,325.6 836.5,380.5 886.7,438.5 932.5,498.7 974.0,558.0" fill="none" class="road-casing road-highway"/>
          <polyline points="54.0,26.0 162.5,52.0 270.7,81.2 374.5,112.5 472.0,147.0 562.0,185.2 643.4,227.7 716.0,274.5 780.0,325.6 836.5,380.5 886.7,438.5 932.5,498.7 974.0,558.0" fill="none" class="road-core road-highway"/>
</g>
<g><title>K123+500 施工围栏</title>
    <polygon points="158.6,498.2 869.4,498.2 869.4,85.8 158.6,85.8" fill="#ffd8a8" fill-opacity="0.32" stroke="#ff6a00" stroke-width="2" stroke-opacity="0.9"/>
    <polygon points="158.6,498.2 869.4,498.2 869.4,85.8 158.6,85.8" fill="none" stroke="#ff8c1a" stroke-width="1.6" stroke-opacity="0.9" stroke-dasharray="7 5"/>
    <text x="164.61538461537492" y="492.15384615384613" font-size="11" fill="#fff" font-weight="600" paint-order="stroke" stroke="#ff6a00" stroke-width="6" stroke-linejoin="round">K123+500 施工围栏</text></g>
<g><circle cx="336.3076923077506" cy="333.2307692307692" r="11" fill="#52c41a" fill-opacity="0.18"/>
    <circle cx="336.3076923077506" cy="333.2307692307692" r="9" fill="#52c41a" stroke="#fff" stroke-width="2.5"/>
    <text x="350.3076923077506" y="337.2307692307692" font-size="12" fill="#1f2d3d" font-weight="500" paint-order="stroke" stroke="#fff" stroke-width="3.2" stroke-linejoin="round">定位器A·实时</text></g><g><circle cx="602.8461538461878" cy="195.79487179490434" r="11" fill="#fa8c16" fill-opacity="0.18"/>
    <circle cx="602.8461538461878" cy="195.79487179490434" r="9" fill="#fa8c16" stroke="#fff" stroke-width="2.5"/>
    <text x="616.8461538461878" y="199.79487179490434" font-size="12" fill="#1f2d3d" font-weight="500" paint-order="stroke" stroke="#fff" stroke-width="3.2" stroke-linejoin="round">防侵B</text></g><g><circle cx="869.3846153846251" cy="429.4358974358649" r="11" fill="#cf1322" fill-opacity="0.18"/>
    <circle cx="869.3846153846251" cy="429.4358974358649" r="9" fill="#cf1322" stroke="#fff" stroke-width="2.5"/>
    <text x="883.3846153846251" y="433.4358974358649" font-size="12" fill="#1f2d3d" font-weight="500" paint-order="stroke" stroke="#fff" stroke-width="3.2" stroke-linejoin="round">列车C</text></g>
<g pointer-events="none" transform="translate(884, 486)">
  <rect x="0" y="0" width="88" height="66" rx="4" fill="#fff" fill-opacity=".92" stroke="#dbe3ee"/>
  <line x1="9" y1="14" x2="28" y2="14" class="legend-river"/><text x="34" y="17" class="legend-txt">河流</text>
  <line x1="9" y1="28" x2="28" y2="28" class="legend-rail"/><text x="34" y="31" class="legend-txt">铁路</text>
  <line x1="9" y1="42" x2="28" y2="42" class="legend-road"/><text x="34" y="45" class="legend-txt">道路</text>
  <rect x="9" y="53" width="19" height="9" rx="2" class="legend-park"/><text x="34" y="61" class="legend-txt">绿地</text>
</g>
<text x="60" y="22" font-size="12" fill="#5a6573">模拟地图 · 真图质感底图预览（路网/地形/铁路）</text>
</svg>
